<?xml version="1.0" encoding="UTF-8"?> <svg xmlns="http://www.w3.org/2000/svg" id="Layer_1" data-name="Layer 1" viewBox="0 0 400 245"><defs><style>.cls-1{fill:#02a6e2;}</style></defs><title>g-research</title><path class="cls-1" d="M178.151,108.42727a2.54237,2.54237,0,0,0,2.48865-2.64733c0-1.69522-.805-2.895-2.5854-2.895h-1.67588v5.54236Zm1.36237,7.39241c-.58055-2.36867-1.58685-2.65508-2.55444-2.65508h-.32511v9.645h-6.08035v-24.662h9.02183c4.55929,0,7.14857,2.09,7.14857,6.64541a5.46551,5.46551,0,0,1-4.33482,5.65074v.10837c1.29271.46057,2.13645,1.13014,3.03824,4.55542l2.04356,7.702h-6.27774l-1.67974-6.99375Zm10.47321-17.6721h13.83657v4.87666h-7.89168v4.73346h7.50464v4.88053h-7.50464v5.29467h8.30968v4.87666H189.98655Zm17.10316,18.72871a11.023,11.023,0,0,0,5.10889,1.47848c2.29512,0,3.104-1.09144,3.104-2.63959,0-1.62942-1.00242-2.09-2.748-2.83311l-1.32753-.5612c-3.71555-1.5946-4.8457-3.78135-4.8457-7.284,0-4.65992,3.42527-7.315,8.209-7.315a14.41547,14.41547,0,0,1,5.68945.99082l-.25932,4.838a10.33,10.33,0,0,0-4.65218-1.23078c-1.81133,0-2.91438.81277-2.91438,2.33,0,1.27335.58443,1.83842,2.59314,2.82924l2.71313,1.343a6.24556,6.24556,0,0,1,3.81231,6.25451c0,5.39916-3.553,8.15486-8.82443,8.15486a21.2426,21.2426,0,0,1-6.01456-.94824Zm17.587-18.72871h13.83657v4.87666h-7.88782v4.73346h7.4969v4.88053h-7.4969v5.29467h8.30968v4.87666H224.67664Zm25.89662,5.016h-.06579l-2.42671,9.67592h4.4664Zm3.104,14.41712h-6.626l-1.45912,5.22887H239.775l7.4969-24.662h6.688l7.17953,24.662h-6.27l-1.19982-5.225Zm16.87868-9.15342a2.5417,2.5417,0,0,0,2.48476-2.64733c0-1.69522-.81277-2.895-2.5854-2.895h-1.67586v5.54236Zm1.35462,7.39241c-.58056-2.36867-1.58685-2.65508-2.55058-2.65508h-.329v9.645h-6.07648v-24.662h9.018c4.567,0,7.15244,2.09,7.15244,6.64541a5.4655,5.4655,0,0,1-4.33481,5.65074v.10837c1.29657.46057,2.13644,1.13014,3.03824,4.55542l2.03582,7.702h-6.27l-1.68749-6.99375Zm26.60878,6.46351a17.9969,17.9969,0,0,1-5.56172.94824c-6.56027,0-11.25117-4.26514-11.25117-12.927,0-7.284,3.81619-12.58257,11.22408-12.58257a12.995,12.995,0,0,1,5.46108,1.134l-.32511,5.44173a8.77508,8.77508,0,0,0-4.39674-1.41268c-3.87424,0-5.68945,2.7557-5.68945,7.55883,0,4.24579,2.13644,7.493,5.94875,7.493a7.58237,7.58237,0,0,0,4.33481-1.37785l.25545,5.72814Zm13.51532-9.50175h-4.72185v10.032h-6.07648V98.14758h6.07648v9.47079h4.72185V98.14758h6.07651v24.66586h-6.07648Z"></path><path class="cls-1" d="M170.55344,137.84207,279.53527,162.059A88.51966,88.51966,0,1,1,246.61005,47.77474l15.5163-25.10321A118.05455,118.05455,0,1,0,317.1591,137.8382H170.55344Z"></path></svg> 